<?xml version="1.0" encoding="UTF-8" standalone="no"?>
<svg
   width="22.052979"
   height="21.251013"
   viewBox="0 0 22.052979 21.251013"
   fill="none"
   version="1.1"
   id="svg4"
   sodipodi:docname="logo_fusion.svg"
   inkscape:version="1.2.2 (732a01da63, 2022-12-09)"
   xmlns:inkscape="http://www.inkscape.org/namespaces/inkscape"
   xmlns:sodipodi="http://sodipodi.sourceforge.net/DTD/sodipodi-0.dtd"
   xmlns="http://www.w3.org/2000/svg"
   xmlns:svg="http://www.w3.org/2000/svg">
  <defs
     id="defs8" />
  <sodipodi:namedview
     id="namedview6"
     pagecolor="#505050"
     bordercolor="#eeeeee"
     borderopacity="1"
     inkscape:showpageshadow="0"
     inkscape:pageopacity="0"
     inkscape:pagecheckerboard="0"
     inkscape:deskcolor="#505050"
     showgrid="false"
     inkscape:zoom="14.511061"
     inkscape:cx="14.402806"
     inkscape:cy="8.4418363"
     inkscape:window-width="3440"
     inkscape:window-height="1355"
     inkscape:window-x="-9"
     inkscape:window-y="-9"
     inkscape:window-maximized="1"
     inkscape:current-layer="svg4" />
  <path
     fill-rule="evenodd"
     clip-rule="evenodd"
     d="m 11.026479,19.647112 c 5.2605,0 9.4226,-4.0946 9.4226,-9.0216 0,-4.92705 -4.1621,-9.02166 -9.4226,-9.02166 -5.26049,0 -9.42263,4.09461 -9.42263,9.02166 0,4.927 4.16214,9.0216 9.42263,9.0216 z m 0,1.6039 c 6.0897,0 11.0265,-4.7572 11.0265,-10.6255 C 22.052979,4.757202 17.116179,-1.5556335e-8 11.026479,-1.5556335e-8 4.936719,-1.5556335e-8 0,4.757202 0,10.625512 c 0,5.8683 4.936719,10.6255 11.026479,10.6255 z"
     fill="black"
     id="path2"
     style="display:inline;fill:#ffffff"
     inkscape:export-filename="logos.png"
     inkscape:export-xdpi="96"
     inkscape:export-ydpi="96" />
  <path
     d="m 18.360627,10.569729 c 0,4.0967 -3.3211,7.4178 -7.41783,7.4178 -4.0967399,0 -7.4178059,-3.3211 -7.4178059,-7.4178 0,-4.096739 3.321066,-7.417808 7.4178059,-7.417808 4.09673,0 7.41783,3.321069 7.41783,7.417808 z"
     fill="#ffffff"
     id="path133" />
</svg>
