<?xml version="1.0" encoding="UTF-8" standalone="no"?>
<svg
   width="23"
   height="23"
   viewBox="0 0 23 23"
   fill="none"
   version="1.1"
   id="svg4"
   sodipodi:docname="logo_fusion.svg"
   inkscape:version="1.2.2 (732a01da63, 2022-12-09)"
   xmlns:inkscape="http://www.inkscape.org/namespaces/inkscape"
   xmlns:sodipodi="http://sodipodi.sourceforge.net/DTD/sodipodi-0.dtd"
   xmlns="http://www.w3.org/2000/svg"
   xmlns:svg="http://www.w3.org/2000/svg">
  <defs
     id="defs8" />
  <sodipodi:namedview
     id="namedview6"
     pagecolor="#505050"
     bordercolor="#eeeeee"
     borderopacity="1"
     inkscape:showpageshadow="0"
     inkscape:pageopacity="0"
     inkscape:pagecheckerboard="0"
     inkscape:deskcolor="#505050"
     showgrid="false"
     inkscape:zoom="14.511061"
     inkscape:cx="14.402806"
     inkscape:cy="8.4418363"
     inkscape:window-width="3440"
     inkscape:window-height="1355"
     inkscape:window-x="-9"
     inkscape:window-y="-9"
     inkscape:window-maximized="1"
     inkscape:current-layer="svg4" />
  <path
     fill-rule="evenodd"
     clip-rule="evenodd"
     d="m 11.9735,20.4312 c 5.2605,0 9.4226,-4.0946 9.4226,-9.0216 0,-4.92705 -4.1621,-9.02166 -9.4226,-9.02166 -5.26049,0 -9.42263,4.09461 -9.42263,9.02166 0,4.927 4.16214,9.0216 9.42263,9.0216 z m 0,1.6039 C 18.0632,22.0351 23,17.2779 23,11.4096 23,5.54129 18.0632,0.784088 11.9735,0.784088 5.88374,0.784088 0.947021,5.54129 0.947021,11.4096 c 0,5.8683 4.936719,10.6255 11.026479,10.6255 z"
     fill="black"
     id="path2"
     style="display:inline;fill:#ffffff" />
  <path
     d="m 19.307648,11.353817 c 0,4.0967 -3.3211,7.4178 -7.41783,7.4178 -4.0967399,0 -7.4178059,-3.3211 -7.4178059,-7.4178 0,-4.096739 3.321066,-7.417808 7.4178059,-7.417808 4.09673,0 7.41783,3.321069 7.41783,7.417808 z"
     fill="#ffffff"
     id="path133" />
</svg>
